<svg width="512" height="512" viewBox="0 0 512 512" fill="none" xmlns="http://www.w3.org/2000/svg">
  <defs>
    <linearGradient id="bgGrad" x1="0%" y1="0%" x2="100%" y2="100%">
      <stop offset="0%" stop-color="#1e1e38"/>
      <stop offset="25%" stop-color="#1a1a32"/>
      <stop offset="50%" stop-color="#15152d"/>
      <stop offset="75%" stop-color="#121228"/>
      <stop offset="100%" stop-color="#0f0f20"/>
    </linearGradient>
    <linearGradient id="topGlow" x1="0%" y1="0%" x2="0%" y2="100%">
      <stop offset="0%" stop-color="#8b5cf6" stop-opacity="0.12"/>
      <stop offset="50%" stop-color="#6366f1" stop-opacity="0.04"/>
      <stop offset="100%" stop-color="#6366f1" stop-opacity="0"/>
    </linearGradient>
    <linearGradient id="lineGrad" x1="0%" y1="0%" x2="100%" y2="100%">
      <stop offset="0%" stop-color="#6366f1" stop-opacity="0.6"/>
      <stop offset="100%" stop-color="#8b5cf6" stop-opacity="0.3"/>
    </linearGradient>
    <linearGradient id="nodeGrad" x1="0%" y1="0%" x2="100%" y2="100%">
      <stop offset="0%" stop-color="#6366f1"/>
      <stop offset="100%" stop-color="#8b5cf6"/>
    </linearGradient>
    <linearGradient id="docGrad" x1="0%" y1="0%" x2="100%" y2="100%">
      <stop offset="0%" stop-color="#ffffff"/>
      <stop offset="100%" stop-color="#e5e5e5"/>
    </linearGradient>
  </defs>

  <!-- Background with rounded corners -->
  <rect width="512" height="512" rx="115" fill="url(#bgGrad)"/>
  <rect width="512" height="512" rx="115" fill="url(#topGlow)"/>

  <!-- Border -->
  <rect x="1" y="1" width="510" height="510" rx="114" fill="none" stroke="#8b5cf6" stroke-opacity="0.2" stroke-width="2"/>

  <!-- Connection lines -->
  <path d="M152 152 L256 256" stroke="url(#lineGrad)" stroke-width="8" stroke-linecap="round"/>
  <path d="M360 152 L256 256" stroke="url(#lineGrad)" stroke-width="8" stroke-linecap="round"/>
  <path d="M256 256 L152 360" stroke="url(#lineGrad)" stroke-width="8" stroke-linecap="round"/>
  <path d="M256 256 L360 360" stroke="url(#lineGrad)" stroke-width="8" stroke-linecap="round"/>

  <!-- Top left: Document node -->
  <rect x="80" y="80" width="144" height="144" rx="28" fill="url(#docGrad)"/>
  <rect x="108" y="116" width="63" height="14" rx="7" fill="#c4c4c4"/>
  <rect x="108" y="148" width="90" height="14" rx="7" fill="#c4c4c4"/>
  <rect x="108" y="180" width="45" height="14" rx="7" fill="#c4c4c4"/>

  <!-- Top right: AI node -->
  <rect x="288" y="80" width="144" height="144" rx="28" fill="url(#nodeGrad)"/>
  <circle cx="360" cy="152" r="36" fill="white" fill-opacity="0.25"/>

  <!-- Center hub -->
  <circle cx="256" cy="256" r="62" fill="url(#nodeGrad)"/>
  <circle cx="256" cy="256" r="26" fill="white" fill-opacity="0.9"/>

  <!-- Bottom left: Canvas node -->
  <rect x="80" y="288" width="144" height="144" rx="28" fill="#1e1e24" stroke="url(#nodeGrad)" stroke-width="8"/>
  <rect x="116" y="324" width="36" height="36" rx="9" fill="url(#nodeGrad)" fill-opacity="0.5"/>
  <rect x="168" y="360" width="27" height="27" rx="7" fill="url(#nodeGrad)" fill-opacity="0.3"/>

  <!-- Bottom right: Data node -->
  <rect x="288" y="288" width="144" height="144" rx="28" fill="#22c55e"/>
  <path d="M336 336 L372 336 L372 408 L336 408 Z" fill="white" fill-opacity="0.3"/>
  <path d="M354 354 L396 354 L396 390 L354 390 Z" fill="white" fill-opacity="0.5"/>
</svg>
