<svg viewBox="0 0 280 64" fill="none" xmlns="http://www.w3.org/2000/svg">
  <defs>
    <linearGradient id="lineGrad" x1="0%" y1="0%" x2="100%" y2="100%">
      <stop offset="0%" stop-color="#6366f1" stop-opacity="0.6"/>
      <stop offset="100%" stop-color="#8b5cf6" stop-opacity="0.3"/>
    </linearGradient>
    <linearGradient id="nodeGrad" x1="0%" y1="0%" x2="100%" y2="100%">
      <stop offset="0%" stop-color="#6366f1"/>
      <stop offset="100%" stop-color="#8b5cf6"/>
    </linearGradient>
    <linearGradient id="docGrad" x1="0%" y1="0%" x2="100%" y2="100%">
      <stop offset="0%" stop-color="#ffffff"/>
      <stop offset="100%" stop-color="#e5e5e5"/>
    </linearGradient>
    <linearGradient id="textGrad" x1="0%" y1="0%" x2="100%" y2="100%">
      <stop offset="0%" stop-color="#6366f1"/>
      <stop offset="100%" stop-color="#8b5cf6"/>
    </linearGradient>
  </defs>
  <!-- Icon -->
  <path d="M20 20 L32 32" stroke="url(#lineGrad)" stroke-width="1.5" stroke-linecap="round"/>
  <path d="M44 20 L32 32" stroke="url(#lineGrad)" stroke-width="1.5" stroke-linecap="round"/>
  <path d="M32 32 L20 44" stroke="url(#lineGrad)" stroke-width="1.5" stroke-linecap="round"/>
  <path d="M32 32 L44 44" stroke="url(#lineGrad)" stroke-width="1.5" stroke-linecap="round"/>
  <rect x="12" y="12" width="16" height="16" rx="3" fill="url(#docGrad)"/>
  <rect x="15" y="16" width="7" height="1.5" rx="0.75" fill="#c4c4c4"/>
  <rect x="15" y="19.5" width="10" height="1.5" rx="0.75" fill="#c4c4c4"/>
  <rect x="15" y="23" width="5" height="1.5" rx="0.75" fill="#c4c4c4"/>
  <rect x="36" y="12" width="16" height="16" rx="3" fill="url(#nodeGrad)"/>
  <circle cx="44" cy="20" r="4" fill="white" fill-opacity="0.25"/>
  <circle cx="32" cy="32" r="7" fill="url(#nodeGrad)"/>
  <circle cx="32" cy="32" r="3" fill="white" fill-opacity="0.9"/>
  <rect x="12" y="36" width="16" height="16" rx="3" fill="#1e1e24" stroke="url(#nodeGrad)" stroke-width="1.5"/>
  <rect x="16" y="40" width="4" height="4" rx="1" fill="url(#nodeGrad)" fill-opacity="0.5"/>
  <rect x="22" y="44" width="3" height="3" rx="0.75" fill="url(#nodeGrad)" fill-opacity="0.3"/>
  <rect x="36" y="36" width="16" height="16" rx="3" fill="#22c55e"/>
  <path d="M42 42 L46 42 L46 50 L42 50 Z" fill="white" fill-opacity="0.3"/>
  <path d="M44 44 L48 44 L48 48 L44 48 Z" fill="white" fill-opacity="0.5"/>
  <!-- Text -->
  <text x="70" y="46" font-family="Space Grotesk, sans-serif" font-size="44" font-weight="600" letter-spacing="-1.5">
    <tspan fill="url(#textGrad)">Nex</tspan><tspan fill="#ffffff">Space</tspan>
  </text>
</svg>
