<svg viewBox="0 0 64 64" fill="none" xmlns="http://www.w3.org/2000/svg">
  <defs>
    <linearGradient id="lineGradL" x1="0%" y1="0%" x2="100%" y2="100%">
      <stop offset="0%" stop-color="#6366f1" stop-opacity="0.5"/>
      <stop offset="100%" stop-color="#8b5cf6" stop-opacity="0.25"/>
    </linearGradient>
    <linearGradient id="nodeGradL" x1="0%" y1="0%" x2="100%" y2="100%">
      <stop offset="0%" stop-color="#6366f1"/>
      <stop offset="100%" stop-color="#8b5cf6"/>
    </linearGradient>
  </defs>
  <path d="M20 20 L32 32" stroke="url(#lineGradL)" stroke-width="1.5" stroke-linecap="round"/>
  <path d="M44 20 L32 32" stroke="url(#lineGradL)" stroke-width="1.5" stroke-linecap="round"/>
  <path d="M32 32 L20 44" stroke="url(#lineGradL)" stroke-width="1.5" stroke-linecap="round"/>
  <path d="M32 32 L44 44" stroke="url(#lineGradL)" stroke-width="1.5" stroke-linecap="round"/>
  <rect x="12" y="12" width="16" height="16" rx="3" fill="#f5f5f5" stroke="#e0e0e0" stroke-width="1"/>
  <rect x="15" y="16" width="7" height="1.5" rx="0.75" fill="#d4d4d4"/>
  <rect x="15" y="19.5" width="10" height="1.5" rx="0.75" fill="#d4d4d4"/>
  <rect x="15" y="23" width="5" height="1.5" rx="0.75" fill="#d4d4d4"/>
  <rect x="36" y="12" width="16" height="16" rx="3" fill="url(#nodeGradL)"/>
  <circle cx="44" cy="20" r="4" fill="white" fill-opacity="0.25"/>
  <circle cx="32" cy="32" r="7" fill="url(#nodeGradL)"/>
  <circle cx="32" cy="32" r="3" fill="white" fill-opacity="0.9"/>
  <rect x="12" y="36" width="16" height="16" rx="3" fill="#fafafa" stroke="url(#nodeGradL)" stroke-width="1.5"/>
  <rect x="16" y="40" width="4" height="4" rx="1" fill="url(#nodeGradL)" fill-opacity="0.4"/>
  <rect x="22" y="44" width="3" height="3" rx="0.75" fill="url(#nodeGradL)" fill-opacity="0.25"/>
  <rect x="36" y="36" width="16" height="16" rx="3" fill="#22c55e"/>
  <path d="M42 42 L46 42 L46 50 L42 50 Z" fill="white" fill-opacity="0.3"/>
  <path d="M44 44 L48 44 L48 48 L44 48 Z" fill="white" fill-opacity="0.5"/>
</svg>
